<svg width="58" height="58" viewBox="0 0 58 58" fill="none" xmlns="http://www.w3.org/2000/svg">
<path fill-rule="evenodd" clip-rule="evenodd" d="M40.8828 16.6871C40.8828 20.8692 39.8436 26.3236 38.245 25.4959C37.5913 27.6306 36.2189 29.4734 34.3608 30.7112C32.5027 31.949 30.2735 32.5055 28.0517 32.2864C25.8299 32.0672 23.7524 31.0858 22.172 29.5088C20.5916 27.9318 19.6057 25.8564 19.3817 23.635C17.7952 20.8595 15.7144 15.2975 21.0637 10.962C21.1604 10.9306 21.2184 10.6696 21.3054 10.2854C21.6364 8.83174 22.3699 5.60066 26.9966 6.21812C30.5648 6.69299 40.8828 8.53449 40.8828 16.6871ZM36.2839 19.3249C36.2839 19.3249 35.7377 20.9223 36.25 22.7022C36.2434 24.6 35.4928 26.4195 34.1596 27.7701C32.8263 29.1207 31.0167 29.8946 29.1191 29.9258C27.2216 29.957 25.3875 29.2428 24.0106 27.9368C22.6337 26.6307 21.8238 24.8368 21.7549 22.9402C21.9301 22.2757 21.9301 21.1507 21.9289 19.9001C21.9277 17.6441 21.9252 14.9822 22.9584 13.8971C30.1951 18.7171 36.2839 19.3249 36.2839 19.3249Z" fill="#4868FD"/>
<path d="M15.7083 43.5001C15.7083 42.1926 16.4007 41.0471 17.4399 40.4091C17.4004 40.2587 17.3633 40.1077 17.3287 39.956C17.1461 39.1304 17.0029 38.2965 16.8998 37.4572C16.7967 36.6529 16.7342 35.8439 16.7125 35.0333C11.6121 37.0355 7.25 40.5251 7.25 44.1888V50.7501H50.75V44.1888C50.75 40.6798 46.7504 37.3315 41.9316 35.2955V35.3293C41.9533 36.0664 41.9123 36.9122 41.8325 37.7254C41.76 38.4794 41.6525 39.231 41.5232 39.8751H42.2917C42.516 39.8752 42.7359 39.9378 42.9267 40.0558C43.1175 40.1738 43.2716 40.3426 43.3719 40.5433L44.5803 42.9599C44.6648 43.1279 44.7083 43.3128 44.7083 43.5001V45.9167C44.7083 46.2372 44.581 46.5445 44.3544 46.7712C44.1278 46.9978 43.8205 47.1251 43.5 47.1251H41.0833V44.7084H42.2917V43.7852L41.5449 42.2917H38.2051L37.4583 43.7852V44.7084H38.6667V47.1251H36.25C35.9295 47.1251 35.6222 46.9978 35.3956 46.7712C35.169 46.5445 35.0417 46.2372 35.0417 45.9167V43.5001C35.0417 43.3128 35.0852 43.1279 35.1698 42.9599L36.3781 40.5433C36.4784 40.3426 36.6325 40.1738 36.8233 40.0558C37.0141 39.9378 37.234 39.8752 37.4583 39.8751H39.0473C39.0739 39.7711 39.1005 39.656 39.127 39.5295C39.2479 38.9604 39.3554 38.239 39.4279 37.4934C39.5004 36.7467 39.5342 36.006 39.5161 35.397C39.5122 35.1447 39.4924 34.8928 39.4569 34.643C39.4303 34.4714 39.4038 34.3929 39.3989 34.3759C39.3973 34.3719 39.3973 34.3711 39.3989 34.3735L39.4025 34.3723C38.7613 34.1734 38.1128 33.9989 37.4583 33.8491C36.8505 33.7101 36.2222 34.5463 35.9479 35.0695H21.75L21.6461 34.8665C21.3899 34.3566 21.0745 33.7271 20.5417 33.8491C20.0761 33.9546 19.6108 34.0743 19.146 34.208C19.1316 34.4199 19.1252 34.6323 19.1267 34.8448C19.1315 35.513 19.1956 36.331 19.2983 37.1575C19.401 37.9816 19.54 38.7839 19.685 39.4171C19.7268 39.6 19.7671 39.7627 19.8058 39.9053C20.4966 39.9961 21.1466 40.2841 21.678 40.7347C22.2094 41.1854 22.5996 41.7797 22.802 42.4464C23.0044 43.1131 23.0104 43.824 22.8192 44.4941C22.628 45.1641 22.2478 45.7648 21.724 46.2243C21.2002 46.6838 20.5551 46.9826 19.8659 47.085C19.1767 47.1874 18.4726 47.089 17.8379 46.8015C17.2032 46.5141 16.6648 46.0498 16.2871 45.4643C15.9094 44.8788 15.7085 44.1968 15.7083 43.5001Z" fill="#4868FD"/>
<path d="M20.5417 43.5001C20.5417 44.1937 19.9834 44.7266 19.3333 44.7266C18.6833 44.7266 18.125 44.1949 18.125 43.5001C18.125 42.8066 18.6833 42.2737 19.3333 42.2737C19.9834 42.2737 20.5417 42.8053 20.5417 43.5001Z" fill="#4868FD"/>
</svg>
